# xmcd
#
# Track frame offsets:
#	150
#	30015
#	48958
#	67565
#	89515
#	117768
#	142235
#	173403
#	199478
#	229958
#
# Disc length: 3346 seconds
#
# Revision: 0
# Processed by: cddbd v1.4PL0 Copyright (c) Steve Scherf et al.
# Submitted via: dBpowerAMP V4.0
#
DISCID=7c0d100a
DTITLE=Millie Jackson - Jong man older woman
DYEAR=1900
DGENRE=Soul
TTITLE0=Young man older woman
TTITLE1=Are you up on It
TTITLE2=Love is on I'ts way
TTITLE3=Let you walk away
TTITLE4=Living with a stranger
TTITLE5=Love don't have to hurt
TTITLE6=When are you gonna tell you woman (about me)?
TTITLE7=Taking my life back
TTITLE8=Is It ever as you dream
TTITLE9=If you want 2
EXTD=Millie Jackson
EXTT0=
EXTT1=
EXTT2=
EXTT3=
EXTT4=
EXTT5=
EXTT6=
EXTT7=
EXTT8=
EXTT9=
PLAYORDER=
